P3
55 50
255
195 187 166 199 188 166 200 188 164 209 192 164 217 197 162 218 194 158 211 187 151 208 185 153 199 180 147 195 176 144 200 180 147 205 182 150 202 179 147 197 174 143 191 168 137 200 176 148 202 179 147 206 185 156 199 182 156 179 164 143 173 164 147 173 165 152 165 158 150 162 154 151 159 156 151 162 158 155 159 158 154 161 160 156 163 163 161 161 161 161 157 161 160 160 161 163 160 162 161 162 162 162 161 161 159 163 163 161 163 162 157 168 165 160 172 169 162 172 167 161 169 169 161 166 165 160 161 163 162 157 158 160 153 158 161 154 158 161 157 158 160 162 160 161 166 165 160 174 170 161 177 173 162 175 169 157 175 169 155 180 174 160 180 172 161 
189 182 163 193 185 166 194 186 163 199 187 161 210 193 163 212 193 160 206 185 154 207 186 155 205 184 155 198 177 148 199 179 152 204 183 154 209 188 157 210 187 155 211 187 153 212 189 157 205 184 153 205 188 162 185 174 156 177 168 153 179 167 153 187 175 163 172 164 153 169 160 153 161 157 148 157 150 144 160 153 143 169 162 154 165 160 154 162 158 155 162 161 157 159 158 156 157 156 154 158 157 155 161 160 158 165 164 162 166 165 160 168 167 162 168 167 162 167 166 161 165 164 160 165 164 162 168 168 166 158 158 158 153 155 152 163 164 159 172 169 160 176 170 158 185 178 162 190 181 164 188 179 164 187 178 163 186 178 165 187 179 166 185 175 163 
192 184 163 193 185 164 191 183 164 188 180 161 188 182 160 190 182 161 190 182 159 194 182 160 198 184 158 195 179 156 189 176 157 190 177 160 193 182 162 192 181 161 195 183 161 198 185 166 192 179 162 187 175 161 179 171 158 178 170 159 178 171 155 180 168 154 175 163 149 175 161 148 172 160 144 176 163 147 181 168 151 176 163 147 169 161 148 166 159 149 168 161 151 165 158 152 160 157 150 163 160 155 164 163 159 165 164 160 168 167 162 168 167 162 167 166 162 166 165 161 163 164 159 160 160 158 157 157 157 157 157 159 155 155 153 164 161 154 187 175 161 195 182 165 189 181 162 185 178 160 185 178 162 188 181 165 186 181 162 186 181 162 183 176 158 
214 199 168 213 198 169 203 191 165 197 185 163 189 181 160 191 180 160 193 181 159 203 187 162 209 192 164 206 189 161 200 184 161 197 184 165 193 182 162 186 178 159 190 181 164 191 182 165 186 179 161 184 177 161 179 171 158 180 170 158 186 175 157 187 172 153 182 167 148 187 170 150 191 173 149 198 178 151 203 184 154 202 181 152 195 175 148 190 172 150 182 167 148 179 163 147 192 177 154 193 178 157 185 172 155 184 174 162 182 176 164 174 170 161 169 166 157 168 165 158 166 163 156 164 159 153 160 155 151 161 154 148 162 155 147 171 163 152 190 178 162 191 179 163 176 172 160 174 172 160 176 172 161 181 177 166 176 174 162 174 172 160 175 171 160 
212 198 169 211 197 170 209 195 168 204 192 168 198 188 163 196 186 161 200 186 160 212 195 167 218 199 166 214 194 161 211 195 162 206 191 162 200 188 164 195 184 162 195 187 166 197 189 168 195 184 164 194 182 160 204 188 162 206 189 161 202 185 157 197 180 152 198 178 153 199 179 154 195 178 152 207 187 160 218 194 160 222 196 161 216 192 158 210 187 155 199 178 149 197 178 148 202 181 150 205 182 150 213 190 156 218 194 160 210 190 157 204 185 155 188 172 149 183 168 149 184 167 149 182 165 147 184 167 147 190 173 153 200 182 158 200 185 164 183 175 162 171 167 156 173 170 161 173 170 161 170 170 162 171 171 163 166 167 161 169 168 163 167 166 161 
201 191 164 201 191 166 198 188 163 198 188 163 200 188 162 207 193 164 217 198 166 218 198 165 224 201 167 221 198 166 219 199 166 218 199 167 213 196 166 211 196 167 212 197 168 209 192 164 211 192 160 217 194 160 222 196 159 228 200 161 220 194 157 216 190 155 212 190 153 211 188 156 202 183 151 204 185 155 211 190 159 210 189 158 212 192 159 210 190 157 207 186 155 204 183 152 209 189 156 210 190 157 215 192 158 218 195 161 214 190 154 217 193 159 204 181 150 199 175 147 195 176 146 200 179 150 213 190 158 220 197 166 216 195 166 199 184 161 174 168 156 170 170 162 169 169 161 168 168 160 170 169 164 169 168 163 166 167 161 164 165 159 163 164 159 
204 192 166 205 191 165 209 195 166 212 197 166 211 195 162 221 202 169 224 204 169 223 201 164 228 204 166 231 207 169 227 203 165 226 202 166 228 205 164 225 203 166 214 195 162 213 194 162 220 197 163 225 199 162 225 197 158 231 202 162 230 198 160 231 199 161 226 198 159 223 195 156 225 197 157 229 201 162 224 199 159 221 195 158 221 199 162 215 192 158 212 192 159 215 192 161 221 198 164 219 196 164 210 190 157 213 192 161 211 191 156 220 196 162 220 196 160 219 193 158 216 193 159 216 196 163 209 192 164 201 186 163 190 182 163 173 167 155 167 164 155 166 165 160 164 165 159 165 166 161 164 165 160 163 163 161 160 162 159 160 162 159 162 163 158 
202 190 164 204 192 166 210 196 169 209 195 168 207 193 166 206 192 165 209 193 167 209 193 167 214 197 167 218 199 167 221 201 168 218 198 165 214 195 163 212 193 163 216 195 164 220 197 166 212 191 160 213 192 161 214 191 159 220 196 162 225 202 161 227 202 161 229 201 162 227 199 160 223 199 161 225 201 163 222 196 161 224 198 161 227 199 160 230 202 163 226 202 164 218 194 160 214 194 159 219 198 167 213 192 161 213 193 166 202 186 161 198 183 162 192 179 160 190 177 160 189 181 162 190 179 161 188 177 159 196 183 164 195 180 159 183 170 151 178 172 160 167 164 157 165 164 160 161 161 161 157 161 162 153 157 160 151 156 159 153 157 160 155 159 158 
190 179 157 194 183 161 195 185 160 195 185 160 194 184 159 193 183 158 195 185 160 197 187 162 197 185 161 197 185 161 201 186 163 200 185 162 200 188 164 197 185 161 201 186 163 199 184 161 194 182 160 194 182 160 196 184 160 198 186 162 202 188 161 204 188 162 208 193 162 213 196 166 215 196 164 219 200 170 213 198 169 150 135 112 83 72 54 163 152 134 207 191 166 204 189 160 202 188 161 203 191 165 202 190 164 199 187 165 194 183 163 190 178 162 187 178 161 186 177 162 185 179 165 182 174 161 179 172 156 192 179 162 202 185 159 200 183 157 190 177 160 176 168 157 166 163 154 164 163 159 163 162 158 156 156 156 151 155 158 150 154 157 156 160 159 
190 175 156 192 177 158 191 179 157 193 181 159 191 180 158 191 180 158 192 181 159 193 182 160 191 180 158 192 181 159 193 180 161 192 179 160 188 180 161 188 179 162 186 177 160 183 174 159 182 174 161 182 174 161 186 177 160 191 182 165 191 183 162 196 185 163 197 187 162 205 191 164 208 194 165 210 196 170 167 158 143 41 34 28 31 30 28 40 36 33 154 148 132 191 183 162 190 182 161 189 181 160 189 181 162 191 182 165 185 180 161 181 175 161 180 174 160 180 173 163 174 172 160 169 166 157 169 165 156 175 168 158 185 176 161 185 173 159 183 174 159 174 165 156 156 156 148 154 154 152 143 145 142 145 147 146 150 154 155 150 154 157 149 154 157 
188 175 156 190 177 158 191 179 157 192 180 158 192 180 158 192 180 158 193 181 159 196 184 162 197 185 161 196 184 162 195 183 161 194 181 162 193 182 164 191 179 163 186 177 160 183 174 159 181 173 160 182 175 159 186 177 160 187 179 160 188 180 159 195 184 164 200 189 167 200 188 166 198 187 165 178 169 154 52 49 44 34 32 35 29 28 33 33 31 34 45 40 36 163 154 145 199 188 168 194 182 160 189 181 162 187 178 163 183 176 160 181 173 162 179 173 161 175 168 160 169 166 157 168 165 158 170 166 157 175 168 160 178 172 160 177 170 160 170 165 159 162 158 155 154 154 152 153 153 155 152 152 154 151 150 155 151 152 154 152 153 155 148 152 155 
188 176 154 189 177 155 194 179 156 195 180 157 193 181 157 194 182 158 199 185 159 202 188 162 202 188 162 200 186 160 200 188 162 199 187 163 198 188 163 195 184 164 191 180 162 189 177 161 185 176 159 187 178 161 190 181 164 188 179 162 188 181 162 193 185 166 197 189 166 199 188 168 184 177 161 83 76 68 42 38 39 38 35 42 36 35 40 34 33 38 37 35 40 56 51 48 171 162 145 204 190 164 210 194 168 207 191 165 202 188 162 198 185 166 187 178 161 178 170 157 176 170 158 174 170 158 175 171 160 175 171 160 176 172 160 170 166 157 162 161 156 158 157 155 159 160 154 161 160 156 160 159 155 160 156 155 158 154 151 161 157 154 155 150 146 
191 175 152 193 177 154 195 179 156 197 181 158 196 182 155 196 182 155 197 183 157 199 185 159 198 184 158 198 184 158 198 183 160 198 183 160 194 184 159 193 182 160 186 174 158 185 173 159 182 173 156 187 178 161 190 181 166 186 177 162 187 180 161 193 185 166 199 188 166 197 185 169 97 88 81 47 41 41 38 36 39 36 35 41 39 38 44 37 36 44 38 36 41 40 36 35 62 54 43 190 178 156 220 201 171 216 193 161 214 195 163 203 186 160 191 176 155 184 171 154 184 176 157 186 177 160 186 177 160 181 173 160 169 165 154 162 159 152 158 157 152 158 157 153 163 160 155 161 157 154 158 154 151 158 153 150 166 157 150 160 149 143 148 138 137 
193 177 152 193 177 152 194 178 153 195 179 154 195 177 153 194 176 152 195 179 156 196 180 157 193 178 155 193 178 157 192 177 156 191 175 159 188 175 158 187 174 158 185 171 158 185 171 158 184 172 156 187 175 159 186 174 158 186 174 158 188 176 160 193 181 165 197 185 169 120 110 100 51 46 42 47 42 46 37 35 40 39 36 43 39 38 44 41 40 46 46 44 49 46 44 47 46 42 43 70 63 55 189 174 155 205 185 158 218 195 161 218 194 160 208 185 151 204 183 152 204 185 155 201 184 158 198 183 162 184 168 152 172 160 146 171 161 152 157 150 144 149 144 141 145 144 140 149 145 142 156 153 148 156 148 145 159 150 143 150 139 135 145 137 135 
193 176 148 194 177 149 196 179 153 196 179 153 196 179 153 195 178 152 197 180 154 198 180 156 194 178 153 192 175 155 192 175 157 190 173 157 187 174 155 186 173 154 186 173 156 186 173 156 185 173 157 186 174 158 187 174 158 187 174 158 186 175 157 190 178 164 138 129 120 52 44 41 52 48 49 42 40 43 39 38 43 40 39 44 36 35 40 44 43 48 44 43 48 44 43 48 45 45 47 46 42 41 71 64 58 175 161 148 198 182 159 205 185 158 197 177 152 204 183 156 217 197 164 210 189 158 198 177 156 171 153 139 157 147 137 151 142 137 149 139 137 147 137 136 147 139 136 155 146 141 169 156 148 169 154 147 159 149 140 150 139 133 149 140 135 
194 175 145 197 178 148 199 178 149 199 178 149 197 178 148 198 179 149 200 180 153 200 180 155 195 178 152 194 176 154 191 175 152 191 174 154 188 173 152 187 172 153 188 173 154 188 172 156 187 174 157 188 175 158 189 176 159 188 175 158 186 174 158 159 146 137 66 56 54 63 54 59 51 44 51 49 44 51 45 44 50 42 41 47 44 43 49 40 39 45 44 43 49 46 45 51 40 40 42 46 44 47 54 48 48 81 71 69 171 163 152 181 169 153 184 173 155 196 180 157 209 188 159 214 189 159 199 178 151 183 162 141 169 153 138 159 145 136 157 143 134 163 146 136 175 158 140 184 167 149 173 157 142 161 147 136 167 151 138 170 154 141 168 152 139 
192 164 127 196 168 131 202 176 141 203 175 138 204 174 136 210 178 139 214 180 142 215 183 145 212 183 149 205 180 150 194 174 149 191 173 151 191 173 151 191 173 151 191 174 154 190 173 153 191 174 154 192 175 155 193 176 156 189 173 157 171 161 149 71 62 57 65 60 57 53 49 50 52 50 53 47 46 51 44 43 48 45 44 50 43 42 48 50 49 55 44 43 49 45 44 50 51 49 54 49 47 52 52 47 51 60 54 56 97 90 84 174 164 155 181 169 155 192 176 160 188 173 152 192 174 152 196 176 151 187 167 143 179 161 141 169 152 136 165 147 135 171 153 141 177 161 146 167 153 140 160 147 138 158 147 141 160 151 142 160 150 140 173 157 142 
204 173 129 204 173 129 208 176 135 207 175 134 209 177 136 209 177 136 221 188 143 215 183 142 202 178 140 198 175 143 197 173 147 191 167 143 189 169 144 193 173 148 193 175 151 193 175 151 194 177 151 196 178 154 195 177 153 185 169 153 80 71 62 49 44 41 42 38 39 26 21 25 39 38 43 36 35 40 43 40 47 49 46 53 46 47 52 46 45 51 47 46 52 46 43 50 43 42 48 51 48 55 51 49 54 56 51 55 38 34 33 149 144 140 172 163 154 174 164 154 174 164 152 172 162 150 171 158 149 170 157 148 165 152 143 164 150 141 168 151 141 175 157 147 169 155 142 167 153 142 165 151 140 163 150 142 160 151 144 158 149 144 157 148 139 
227 192 134 228 193 135 233 197 137 234 198 138 234 198 136 237 201 141 242 206 148 234 198 146 213 180 137 203 171 133 195 166 134 189 159 131 190 165 135 191 165 138 191 165 138 193 167 140 198 174 148 198 176 152 197 176 157 111 95 82 49 41 38 46 41 45 37 35 40 36 33 40 40 39 44 40 39 44 34 31 38 32 29 36 33 32 38 39 38 44 45 44 50 47 46 52 61 59 64 56 54 59 56 54 59 54 52 57 37 36 41 58 54 55 157 150 144 168 158 149 168 158 146 168 158 148 167 157 147 162 152 143 158 148 139 160 147 138 165 151 138 179 162 146 181 163 141 185 164 143 175 158 140 174 158 143 163 153 143 158 149 142 159 148 142 
252 213 138 251 211 139 250 210 138 249 209 140 247 210 140 247 209 144 245 207 145 238 201 148 204 171 126 194 162 124 191 158 125 192 159 128 189 158 129 189 158 129 192 161 130 193 162 131 200 170 134 200 173 144 174 157 137 59 46 37 49 44 41 53 48 52 41 39 44 46 43 50 48 47 52 50 49 54 49 46 53 47 44 51 43 42 48 40 39 45 39 36 43 40 37 44 36 31 37 45 40 46 42 40 45 38 36 41 35 34 39 39 37 40 66 61 58 151 142 137 167 157 147 168 156 144 166 152 143 162 148 139 160 147 139 159 146 138 161 148 140 165 152 144 159 151 140 158 150 139 159 149 140 160 150 141 155 145 136 154 144 135 150 139 133 
240 208 147 241 209 150 239 207 148 237 204 150 234 203 148 232 199 145 240 204 142 241 205 147 210 177 126 199 166 123 198 163 121 198 163 125 197 163 125 198 164 127 200 167 126 205 172 131 211 178 135 209 183 150 81 64 54 57 48 49 62 56 58 47 42 48 49 47 52 55 52 59 58 53 59 59 54 60 57 52 58 58 53 59 51 50 56 49 46 53 53 51 56 57 52 58 54 52 57 51 49 54 48 46 51 44 42 47 51 49 52 56 54 57 54 49 53 69 60 61 150 140 131 157 143 132 158 144 135 162 148 139 163 150 141 164 151 142 161 148 139 162 149 140 160 147 138 157 144 135 157 142 135 155 140 133 154 140 129 160 144 131 168 151 135 
235 203 152 236 204 153 239 206 152 236 203 149 233 202 148 231 199 142 237 201 139 246 208 145 227 191 133 213 176 123 209 173 125 207 170 125 207 173 127 211 177 129 220 184 134 226 192 144 226 195 149 148 123 92 67 53 44 67 58 61 51 45 47 51 46 50 53 51 56 58 56 61 64 59 63 63 58 62 61 56 62 59 54 60 61 56 62 57 52 58 56 51 57 58 53 59 58 53 59 59 54 60 62 57 64 64 59 66 66 61 65 60 55 59 58 53 57 59 53 55 79 68 64 152 137 130 158 141 131 162 144 132 163 147 134 160 144 131 159 142 132 158 141 131 156 142 131 158 142 129 162 144 130 172 151 134 175 155 131 185 161 137 187 163 135 
233 201 150 235 202 149 237 205 146 245 209 147 249 214 148 245 208 140 244 207 136 249 212 141 244 210 139 224 189 123 220 184 126 220 183 128 229 191 128 239 200 133 247 209 136 244 210 149 181 157 121 72 55 39 68 57 53 67 58 61 47 42 46 52 50 55 57 52 56 61 56 60 69 63 65 66 60 64 66 61 65 62 57 63 64 59 65 65 60 66 64 59 65 61 56 62 64 59 65 66 61 67 61 55 59 63 57 61 64 60 61 62 58 59 55 49 53 60 54 58 58 52 52 82 72 70 159 141 131 167 145 132 165 146 131 163 144 129 161 143 129 160 142 128 164 147 131 169 150 133 177 155 131 193 167 140 201 175 140 196 168 131 195 169 134 
234 203 149 234 203 149 236 204 147 241 207 146 245 212 143 248 214 143 247 210 142 245 208 140 245 209 135 250 214 138 250 213 135 252 215 137 251 219 136 251 218 139 248 214 143 213 183 133 82 65 47 66 54 54 71 62 63 58 52 56 53 48 52 55 50 56 66 61 67 67 60 67 66 60 64 70 64 68 65 59 63 64 58 62 71 65 67 68 62 64 70 61 66 67 58 63 65 59 61 69 63 65 71 62 67 70 61 66 65 59 61 67 61 63 64 55 60 63 54 59 60 55 61 59 50 53 100 87 79 161 143 131 164 145 128 167 146 127 169 146 128 172 150 129 177 155 131 187 163 135 195 170 139 205 179 146 200 174 139 190 164 129 189 163 130 
240 205 147 239 204 146 239 205 144 243 208 142 251 215 139 253 216 136 254 215 136 253 214 139 251 215 141 247 210 142 243 208 144 243 207 147 241 206 148 237 204 153 226 198 159 104 82 59 75 61 52 70 60 61 67 61 63 55 48 55 65 60 66 64 59 66 69 63 67 67 58 63 78 69 70 76 66 67 76 66 67 82 72 73 79 69 70 77 67 68 72 63 66 79 70 73 74 64 63 79 69 68 81 69 69 86 74 74 89 77 77 86 74 74 82 70 72 79 67 69 69 58 62 68 57 61 60 48 48 112 97 92 164 145 130 168 146 123 175 151 127 185 161 133 195 171 137 197 173 137 201 177 141 198 174 140 187 167 134 186 163 132 190 166 132 
239 205 144 241 205 145 242 207 143 246 208 143 249 211 140 251 213 140 250 212 141 248 211 143 245 210 146 241 207 146 238 206 147 238 206 149 236 204 147 220 189 145 127 105 84 90 73 66 69 58 56 66 57 60 46 41 45 56 51 57 63 57 59 74 65 68 77 68 69 84 74 75 83 73 74 86 74 76 93 79 79 95 79 80 87 75 75 89 77 77 90 76 76 91 77 77 94 80 80 90 75 78 86 76 77 74 63 67 68 59 60 74 65 66 72 62 63 76 66 67 77 67 68 76 66 67 69 60 63 68 58 57 91 77 68 164 147 131 179 159 134 186 163 131 198 174 136 214 186 146 209 182 139 204 175 135 203 178 138 206 180 143 194 166 129 
241 206 142 242 207 143 245 207 142 245 207 142 247 208 141 248 209 142 248 209 144 247 207 145 246 208 145 244 205 146 240 204 144 236 203 152 221 192 152 112 88 64 79 65 56 68 58 59 61 55 55 51 47 48 56 51 55 61 56 60 68 62 66 68 62 66 70 61 66 75 66 71 76 67 70 73 64 67 75 64 68 78 67 71 74 65 68 72 63 66 72 63 64 85 76 77 73 64 67 75 64 68 74 64 65 73 61 63 68 60 58 69 60 61 70 60 61 72 61 65 67 58 61 65 56 59 66 57 62 65 56 59 57 51 51 82 72 62 180 160 135 197 173 137 202 177 136 217 190 145 226 195 149 219 187 140 223 191 142 215 183 136 196 167 125 
245 206 137 245 206 137 247 207 138 247 207 138 247 209 138 247 209 138 247 209 138 246 207 138 245 207 144 244 206 144 243 204 145 232 198 152 126 104 83 73 56 49 72 61 59 66 56 57 65 59 61 60 54 58 67 61 65 69 63 67 68 59 62 75 66 69 74 68 72 73 67 71 79 70 73 78 69 72 77 66 70 78 67 71 79 70 73 73 64 67 67 56 62 76 65 71 64 58 62 69 63 67 78 69 70 80 71 72 77 68 69 75 66 67 74 64 65 72 62 63 75 66 67 71 62 63 70 61 64 68 59 62 62 58 59 62 53 48 100 85 66 206 185 154 208 186 145 214 191 147 213 188 147 200 175 135 199 176 135 199 174 133 213 185 138 
249 207 131 249 207 131 249 207 133 250 208 134 248 209 134 248 209 134 248 208 136 248 208 138 247 209 138 244 206 143 238 205 152 151 125 90 80 64 51 63 53 52 79 67 69 73 62 66 56 50 54 64 57 64 71 65 67 78 69 72 71 65 67 63 57 61 61 54 61 67 60 68 66 60 64 68 62 66 71 62 67 71 62 67 68 62 66 70 64 68 69 60 65 74 65 70 78 69 72 78 69 72 76 65 69 77 66 70 77 67 68 77 67 68 76 67 68 75 66 67 71 61 62 71 60 64 69 58 62 67 56 62 66 57 60 66 57 58 65 55 54 105 91 78 210 187 153 211 184 141 201 178 137 196 172 134 198 176 135 202 179 137 215 187 140 
253 208 123 254 209 124 254 209 126 254 209 126 254 209 128 254 208 130 252 209 130 251 208 130 250 206 131 244 206 144 172 143 111 85 66 52 67 56 52 67 58 59 67 61 63 58 52 54 51 49 52 64 59 63 65 61 62 72 66 68 74 65 68 74 65 68 68 62 66 71 65 69 78 69 74 73 64 69 75 66 71 74 65 70 85 75 76 86 76 77 89 77 79 88 76 78 79 69 70 83 73 74 77 66 70 80 69 73 79 69 70 73 63 64 77 67 68 77 67 68 77 67 68 73 63 64 72 61 65 73 62 66 70 61 62 69 60 61 69 60 63 65 52 46 126 109 83 213 189 153 210 187 145 205 181 137 206 181 140 210 185 144 213 186 141 
255 210 119 255 210 119 255 209 121 255 209 121 253 209 120 254 210 121 255 209 123 254 209 126 250 208 132 205 170 116 89 67 46 80 64 64 70 58 58 68 58 59 61 55 57 67 61 63 65 59 61 76 67 70 82 72 73 79 67 69 77 68 71 76 67 70 80 69 73 76 65 69 73 64 67 75 66 69 73 64 67 77 68 71 78 69 70 78 69 72 77 66 70 79 68 74 80 71 72 74 65 66 79 68 72 79 68 72 82 70 70 88 76 76 79 69 70 77 67 68 83 71 71 86 74 74 82 70 70 77 65 65 74 64 63 72 62 63 71 61 62 71 59 59 64 54 44 156 139 119 208 186 147 213 186 141 214 187 140 216 189 142 216 190 141 
254 210 115 254 209 116 255 210 117 255 210 119 254 209 116 255 210 117 255 209 119 251 208 130 221 189 132 103 79 45 75 58 48 72 60 60 73 61 61 76 64 66 66 57 60 69 60 65 77 68 69 83 73 74 87 77 76 86 74 74 84 74 73 84 72 72 91 80 78 103 89 88 96 81 78 101 86 83 104 86 86 96 80 81 82 72 71 80 71 72 79 69 70 84 74 75 82 72 73 78 68 69 83 71 71 83 71 71 84 72 72 82 70 70 81 69 69 82 70 70 87 73 72 83 69 68 84 70 70 78 64 64 74 64 63 70 60 59 71 61 62 67 57 58 65 56 57 77 67 58 161 144 118 204 182 145 209 186 142 208 184 138 208 184 138 
254 211 106 254 211 106 255 212 107 255 212 107 253 210 105 254 211 107 253 211 111 238 202 126 108 87 56 71 56 49 67 56 54 79 67 67 78 68 67 70 60 61 63 57 59 65 59 63 78 69 70 73 63 64 74 64 65 86 74 76 81 71 70 78 68 67 83 71 73 85 73 75 78 67 65 97 83 82 111 93 93 98 80 80 87 73 73 84 72 72 80 68 70 84 72 74 82 72 71 83 71 71 88 76 76 88 74 74 83 71 71 86 74 74 88 74 74 84 70 70 93 78 75 89 73 73 85 71 70 84 70 70 86 72 72 86 72 72 84 72 74 75 63 65 74 64 63 75 64 60 72 59 50 156 139 119 198 178 143 203 180 138 204 181 137 
254 213 95 254 213 95 254 213 95 255 214 96 253 214 93 251 215 105 245 211 122 143 117 58 78 61 41 75 64 62 71 57 57 82 70 70 71 61 62 63 54 55 68 59 62 73 64 67 67 58 61 75 64 68 80 68 68 91 77 77 76 66 67 81 71 72 90 78 80 87 75 77 86 72 72 91 77 77 84 70 70 98 82 83 104 89 86 103 85 83 98 80 80 101 83 83 87 73 73 92 78 78 94 78 78 94 78 78 95 81 81 84 70 70 83 67 67 98 82 82 98 80 76 100 82 80 92 77 74 87 71 71 89 75 74 81 67 66 85 69 69 85 69 69 82 71 69 82 70 70 69 59 58 75 62 54 169 152 122 196 174 133 196 175 132 
254 216 81 254 216 81 255 217 82 255 217 82 255 217 82 248 214 104 177 151 90 86 66 39 84 68 55 79 65 64 77 66 64 75 63 63 73 63 64 76 66 67 74 64 65 76 64 64 87 73 72 98 83 80 102 86 86 86 70 70 90 79 77 86 74 74 78 66 66 83 71 73 93 79 78 88 74 74 83 69 69 98 82 83 102 84 84 116 96 97 102 86 86 89 73 74 97 81 81 94 78 78 91 75 75 91 75 75 93 79 78 84 68 68 88 72 72 104 86 86 89 73 73 93 79 79 79 67 67 71 61 62 70 62 60 70 60 59 75 65 64 76 64 64 72 62 61 78 68 67 72 60 60 84 71 65 101 85 69 176 156 129 193 171 134 
253 218 64 253 218 64 254 219 67 255 219 71 251 219 76 232 204 97 94 72 33 88 71 64 84 71 65 85 71 68 86 72 71 77 63 63 71 61 62 74 62 64 86 74 74 83 69 69 92 77 74 100 84 84 96 82 81 89 75 75 88 76 76 85 73 73 84 72 72 90 78 78 96 82 81 88 74 74 84 72 72 83 71 73 83 71 71 83 71 73 72 62 63 79 69 70 90 78 78 83 72 70 80 66 66 90 76 76 95 79 79 94 78 78 99 81 81 95 77 77 92 78 75 88 74 73 83 69 68 85 71 71 81 67 66 87 73 72 88 74 73 79 65 64 86 72 71 77 65 65 74 64 63 69 60 61 61 53 50 82 70 58 185 164 135 
254 222 17 254 221 18 255 222 21 250 219 43 228 203 76 121 100 21 76 60 34 77 63 62 85 70 67 91 75 75 81 70 68 70 58 58 80 68 70 87 72 75 84 70 69 99 83 83 97 83 80 84 70 69 84 70 69 87 75 75 74 64 65 81 71 72 85 73 73 88 74 74 85 73 73 83 71 71 91 77 77 93 79 79 90 79 77 84 70 69 91 77 77 95 79 80 90 76 75 96 80 80 96 81 78 108 90 88 104 84 83 100 80 81 92 76 76 81 65 66 74 62 64 82 70 72 86 72 72 89 75 75 90 75 72 94 78 78 81 67 66 82 68 68 82 68 67 84 70 70 70 60 59 74 64 65 67 57 56 79 68 66 102 89 80 
254 225 1 255 225 3 254 226 5 247 220 51 111 93 19 82 65 47 77 62 55 83 67 67 90 75 72 77 61 61 79 68 66 73 61 61 70 60 59 80 70 69 76 65 63 77 66 64 72 62 61 80 68 68 87 73 73 87 71 72 85 71 70 95 79 79 97 81 81 99 81 81 98 80 80 98 80 80 103 83 82 99 79 78 89 74 71 104 86 84 102 83 79 110 89 86 119 96 90 123 99 95 112 91 86 114 93 90 108 87 86 112 91 90 107 86 81 107 86 83 95 77 75 101 83 83 97 79 77 99 81 79 98 81 74 106 88 84 95 80 75 91 76 73 88 73 70 90 75 72 98 80 78 94 76 74 94 76 74 92 74 72 88 73 68 
253 228 1 252 227 20 246 222 51 154 133 18 86 68 28 85 70 67 86 68 66 92 74 72 96 78 76 88 72 72 78 64 63 84 70 70 91 77 74 95 80 77 98 80 78 102 84 82 91 76 73 96 78 76 98 80 78 97 77 76 100 82 78 105 87 83 96 78 76 104 86 84 100 85 82 95 80 77 98 80 78 101 83 81 92 78 75 100 85 82 103 85 81 102 83 79 96 78 76 100 82 80 93 75 75 95 77 77 98 79 75 104 85 81 105 84 81 106 85 82 107 88 82 104 85 81 93 75 73 89 71 71 93 75 71 102 84 80 94 80 77 87 73 70 101 86 83 86 71 68 80 69 67 70 59 57 86 72 71 80 66 66 67 57 56 
253 233 12 249 230 52 161 142 48 83 65 27 79 65 52 76 62 61 79 63 63 88 72 72 81 70 68 70 58 58 74 62 64 81 69 71 82 70 70 82 71 69 87 73 72 91 75 75 87 72 67 109 91 89 99 81 79 92 74 74 95 80 77 96 78 76 104 86 82 106 86 85 102 84 82 92 74 74 102 82 81 96 76 75 97 79 75 104 85 81 116 96 95 94 74 73 94 76 76 88 72 72 91 73 73 97 79 79 98 80 80 98 80 80 97 79 77 89 71 69 92 77 74 88 73 70 92 74 74 93 75 75 88 73 70 91 76 73 82 68 67 83 69 68 80 66 65 80 66 65 76 60 60 90 74 74 86 71 68 81 66 63 79 68 66 
249 234 73 196 180 59 77 62 19 79 64 61 86 68 64 92 74 70 95 77 75 87 69 67 81 67 66 78 64 64 78 66 66 81 69 71 84 73 71 87 76 74 86 72 72 84 70 70 79 68 66 82 70 70 83 71 71 75 63 65 81 70 68 85 71 70 89 73 73 89 71 69 99 80 76 111 92 86 99 80 76 107 88 84 108 89 83 102 83 79 96 78 76 87 71 72 82 68 68 87 73 73 94 79 76 98 80 76 96 78 76 96 78 76 103 84 80 100 82 78 90 75 70 88 74 71 87 73 70 84 70 69 85 71 68 86 72 69 85 71 68 85 71 68 87 73 70 82 67 64 86 71 68 87 69 67 96 79 72 97 78 72 101 82 78 
215 199 121 92 76 16 86 70 47 91 73 69 91 72 66 96 77 73 99 80 76 89 71 69 77 66 64 74 64 62 76 64 64 72 60 60 83 69 68 84 70 69 88 72 72 93 77 77 90 75 70 97 79 75 101 82 76 114 93 88 105 86 82 101 82 78 96 78 76 102 84 82 97 78 72 108 89 83 98 80 76 101 82 78 124 101 95 111 87 83 105 84 79 103 84 80 98 80 76 104 85 81 107 88 82 109 88 83 109 89 82 105 85 78 105 84 79 104 83 78 100 81 77 100 81 77 95 76 72 105 86 82 107 86 81 104 83 78 95 76 72 100 81 77 99 79 72 114 94 87 119 96 90 101 80 75 91 72 68 92 74 72 88 73 70 
106 88 66 89 70 53 92 72 63 102 79 73 110 87 79 109 86 78 95 76 72 90 72 70 95 82 76 86 71 66 95 76 70 110 89 84 96 78 74 101 83 79 96 78 74 97 78 72 113 90 84 127 102 97 105 85 78 103 82 77 101 81 72 116 93 85 127 100 89 136 109 100 125 101 91 101 76 69 113 88 81 130 103 96 114 87 80 125 98 91 127 100 93 116 89 82 112 89 83 118 95 89 114 90 86 106 82 78 103 84 78 103 84 78 100 81 77 103 84 80 100 83 76 96 77 71 101 81 74 121 96 89 130 103 94 118 91 82 105 82 74 107 87 80 119 96 88 99 79 72 92 73 67 90 72 68 92 74 70 90 72 68 92 73 67 
97 74 66 106 81 74 109 82 73 120 91 83 120 93 84 111 86 81 81 63 59 78 62 62 80 66 65 86 70 70 95 77 73 103 84 80 96 79 72 100 81 75 95 76 69 110 90 83 116 93 85 110 85 78 116 92 82 129 100 92 139 111 99 130 100 89 123 95 84 129 102 93 119 94 87 105 80 73 133 106 97 127 98 90 115 91 81 112 87 80 111 86 81 113 88 83 117 94 86 114 91 85 111 88 82 109 86 80 109 84 77 120 97 89 103 82 77 100 79 76 114 91 85 113 88 83 107 82 77 118 93 88 120 96 86 110 85 78 111 88 80 101 78 72 95 76 70 98 79 73 95 76 70 96 77 71 95 78 71 93 76 69 92 75 68 
107 83 73 106 79 70 110 83 76 112 85 78 104 81 73 95 76 69 83 65 63 77 61 61 81 67 64 91 76 73 88 73 68 95 77 73 98 81 74 94 75 69 102 83 77 94 73 68 101 82 75 108 88 81 100 77 69 128 103 96 110 86 76 116 91 84 103 83 76 104 80 76 114 89 82 123 96 89 118 93 86 108 81 74 126 99 88 125 96 88 115 88 79 117 92 85 107 84 78 103 80 74 109 84 79 115 87 83 105 82 76 110 85 80 114 89 84 107 82 77 110 87 81 95 75 68 102 79 73 111 88 82 116 92 82 109 84 77 109 86 78 102 79 73 110 85 78 110 85 78 116 89 82 116 89 82 111 86 79 104 77 70 122 95 84 
104 81 73 108 83 76 114 90 80 116 89 80 107 84 76 100 77 69 108 85 77 108 88 81 90 75 68 85 70 65 89 74 69 92 73 67 107 87 80 118 93 86 118 93 86 106 81 76 106 86 79 95 76 70 97 77 70 106 86 79 106 83 75 111 88 80 108 85 79 112 89 83 117 92 85 120 95 88 115 88 81 113 86 79 119 92 81 124 97 86 126 98 87 117 89 78 129 99 88 125 97 86 106 79 72 111 86 81 109 84 77 116 91 84 112 87 82 109 84 79 110 87 81 109 84 79 109 84 77 115 88 81 107 82 75 108 83 76 111 86 81 106 81 76 104 81 75 106 83 77 109 86 78 99 76 68 103 80 72 107 82 75 109 85 75 
95 76 69 102 82 75 103 83 76 103 80 74 105 81 71 123 98 91 108 88 79 99 80 74 90 73 66 96 78 74 109 86 80 112 87 82 108 85 79 115 92 86 108 85 77 109 86 78 109 89 82 110 90 83 104 81 75 112 89 83 101 81 74 105 82 76 106 83 77 108 83 78 109 86 78 109 84 77 120 93 84 130 101 93 123 96 85 116 89 80 107 83 73 115 90 83 105 82 74 113 88 81 116 89 80 117 88 80 113 86 77 120 93 84 111 84 77 112 85 78 105 82 74 103 80 72 106 81 74 112 87 80 117 90 79 113 86 75 113 86 77 110 83 74 114 87 76 112 85 76 111 84 75 113 84 76 119 91 79 124 92 79 130 98 83 
67 56 52 77 66 64 64 54 52 59 49 48 58 50 48 63 53 52 64 54 53 63 51 51 68 57 55 70 59 57 73 59 56 86 72 69 71 58 52 87 72 67 79 64 61 91 73 71 80 66 63 81 66 61 99 80 74 111 88 80 134 107 96 140 111 97 140 107 92 159 122 104 175 134 112 169 127 103 166 124 100 167 125 101 166 125 103 162 120 98 175 131 106 185 139 115 175 131 104 188 143 114 194 147 117 203 154 122 198 153 122 172 128 101 157 119 96 151 113 90 184 140 113 190 144 111 212 159 125 221 165 128 226 171 130 228 171 128 230 171 129 236 177 135 235 178 133 232 175 132 229 170 128 227 168 128 230 171 131 226 167 127 223 164 122 
90 73 66 88 71 64 91 74 67 82 65 58 94 75 68 87 70 63 78 63 58 77 63 60 83 70 62 73 60 54 74 61 55 73 58 53 84 69 62 94 77 70 87 72 65 68 53 48 72 61 57 77 64 58 102 83 77 85 65 58 88 69 62 88 65 57 89 63 48 156 121 101 198 152 119 199 146 112 189 139 104 192 142 109 201 148 114 202 149 115 194 144 109 193 143 108 196 143 109 195 142 108 199 145 111 204 150 116 200 147 113 199 146 112 193 140 108 192 139 105 203 149 113 211 155 118 219 164 125 218 163 124 207 154 114 194 141 101 203 147 110 209 151 114 209 153 116 187 131 94 196 140 103 199 143 106 198 144 108 194 140 106 185 131 97 
114 88 73 132 103 87 151 116 94 154 118 96 141 110 90 123 90 71 147 110 91 161 119 97 167 123 98 167 121 95 171 123 100 175 125 100 179 130 100 188 137 106 190 137 106 192 139 108 187 138 106 187 138 106 184 133 104 187 136 107 183 134 104 182 133 103 190 139 110 188 137 106 191 145 111 171 125 91 176 127 97 182 132 105 172 127 98 173 126 98 180 133 103 180 131 101 182 133 101 184 133 102 190 140 105 192 139 105 194 142 105 196 143 109 193 139 105 199 144 113 195 141 107 193 139 105 183 129 95 195 141 107 200 146 110 193 139 103 194 140 104 192 138 102 196 142 106 195 141 105 197 141 104 201 145 108 209 151 111 212 154 114 215 156 116 
