P3
55 50
255
192 185 166 197 189 168 200 191 162 206 193 161 217 199 163 219 195 159 214 185 151 214 183 152 202 179 147 197 176 145 200 177 146 204 181 150 204 179 148 198 171 141 197 170 140 201 174 144 201 179 142 207 188 155 196 179 151 179 164 143 176 164 148 175 165 155 166 157 152 160 152 149 162 157 154 161 157 154 163 159 156 163 159 156 162 162 160 162 162 162 160 161 165 159 160 164 156 160 159 160 162 159 160 162 157 164 163 159 161 161 153 169 164 158 174 167 161 177 170 164 170 165 159 168 167 162 163 165 164 154 158 159 152 156 159 157 158 160 159 161 160 160 159 155 171 164 158 177 168 161 179 171 160 177 169 158 177 169 156 179 171 158 182 174 163 
194 184 159 178 198 145 139 223 111 109 191 80 190 208 150 210 193 165 207 187 160 207 186 159 202 185 157 196 179 151 197 177 150 203 183 156 207 187 160 206 186 159 205 185 158 207 187 162 200 184 158 204 188 165 191 178 159 178 166 150 181 171 159 180 172 161 174 165 156 170 161 152 157 150 142 159 152 144 163 156 148 166 159 151 164 161 154 164 161 156 161 160 158 161 159 160 154 154 154 159 159 159 161 161 161 168 168 166 166 167 162 168 169 163 165 166 158 165 166 160 167 168 163 167 167 167 163 164 166 156 157 161 156 158 157 163 163 161 171 168 163 175 171 162 185 178 168 186 180 168 187 181 167 186 180 166 186 179 163 185 178 162 185 177 164 
194 183 155 195 183 157 192 182 155 190 179 157 190 182 159 189 181 160 190 179 157 194 182 158 201 187 161 195 179 154 191 177 151 195 180 157 195 183 159 195 183 161 194 183 161 197 186 168 190 178 166 189 176 167 180 167 158 176 163 154 179 169 157 180 170 158 174 165 150 173 164 149 173 161 145 176 164 148 179 166 150 178 165 149 172 163 148 169 159 147 167 159 148 167 158 151 166 159 153 168 160 157 163 158 155 168 164 161 164 163 159 167 168 163 161 166 162 162 167 163 158 160 157 161 161 159 159 159 159 158 154 153 157 154 149 169 162 154 183 175 164 193 183 171 187 182 163 186 181 162 187 182 163 187 182 163 188 181 163 186 179 161 184 177 161 
208 197 167 209 198 170 206 195 173 199 188 168 190 182 161 187 179 158 192 184 161 200 190 165 205 191 164 203 187 161 199 185 159 196 184 160 191 180 158 185 177 156 186 179 160 192 183 168 187 178 163 186 174 162 183 169 156 184 171 155 188 175 158 165 183 135 125 207 97 111 190 81 173 188 133 196 179 153 199 182 156 197 180 154 190 174 149 185 169 146 180 165 146 178 163 144 188 176 150 188 176 150 185 174 154 186 177 160 180 172 161 181 174 166 172 167 163 170 165 161 171 164 158 168 161 153 163 156 146 159 152 142 163 155 142 173 163 151 186 174 158 193 181 165 178 172 156 175 172 155 177 174 159 179 176 161 181 175 161 178 172 158 176 170 158 
210 201 170 209 200 171 205 198 170 202 192 167 195 185 160 198 184 158 204 190 161 211 196 165 214 198 165 212 196 163 210 193 163 207 192 163 202 188 161 196 184 160 196 185 163 200 188 166 196 184 160 199 183 158 201 185 159 205 188 162 206 186 159 199 179 152 197 176 147 201 180 151 199 178 147 207 186 155 218 195 163 220 197 165 215 194 163 209 188 159 202 182 155 198 178 151 201 183 147 205 187 151 208 189 156 215 196 166 210 190 163 204 184 160 189 168 149 181 160 143 181 164 146 180 163 145 184 167 149 192 177 158 197 184 165 195 184 166 183 174 157 175 167 154 173 169 157 171 169 157 173 170 161 174 171 162 172 169 162 168 165 158 167 164 159 
200 193 164 199 189 162 198 188 161 202 188 162 204 188 162 211 192 162 217 197 164 220 197 163 226 203 169 223 200 168 219 199 166 218 197 166 214 197 167 212 195 167 209 194 165 208 193 164 208 192 158 213 195 159 218 198 163 223 200 166 220 196 160 213 189 153 212 186 153 214 188 155 205 181 145 211 187 151 214 190 154 214 190 154 213 189 153 191 200 137 113 190 74 143 220 106 191 201 141 213 190 159 213 188 157 219 195 161 216 192 156 216 192 154 209 184 144 185 194 129 139 214 96 113 190 76 190 203 149 215 197 173 210 196 170 195 184 164 179 172 154 168 164 152 170 167 160 169 168 164 170 169 165 170 169 167 166 166 164 163 163 161 163 163 161 
205 193 167 203 191 165 209 195 169 211 197 170 212 197 168 218 201 171 223 204 171 222 202 169 228 205 171 227 204 170 226 203 171 225 202 170 222 202 169 221 200 169 217 198 166 215 196 164 218 198 165 220 197 163 224 200 164 228 202 167 229 201 162 229 201 162 227 199 160 222 196 159 225 201 163 225 201 165 222 198 160 220 194 157 218 194 156 220 196 160 218 195 163 215 192 161 221 197 169 219 195 167 213 190 159 214 191 160 211 188 154 216 193 159 214 194 159 217 197 164 213 196 166 213 196 168 211 194 166 205 189 163 190 178 156 175 166 149 171 164 154 171 168 163 165 164 159 165 165 163 164 164 162 162 162 162 160 162 161 160 162 161 161 163 162 
204 190 164 204 190 164 208 197 169 210 199 171 205 191 162 206 191 162 211 194 168 212 192 165 215 195 162 219 199 164 221 201 168 220 200 167 216 196 163 215 195 162 215 195 162 216 195 164 216 193 162 194 203 146 116 189 72 161 232 114 204 211 143 231 203 163 229 204 163 223 198 158 223 199 161 224 200 164 225 199 164 224 198 163 225 201 163 228 204 168 224 200 164 218 194 160 215 195 160 216 196 163 212 191 160 213 193 166 204 186 162 181 197 148 111 190 83 134 215 110 172 192 139 188 178 153 191 179 155 195 183 161 191 183 162 182 175 159 172 168 159 166 165 161 162 163 158 161 163 160 159 161 160 155 157 156 153 157 156 155 159 158 155 160 156 
189 181 158 190 182 159 194 183 161 195 184 162 192 185 159 192 185 159 195 185 160 198 186 162 196 184 162 199 184 163 198 185 166 180 198 150 141 225 114 108 191 83 178 198 147 178 198 147 140 224 113 108 192 80 178 198 145 196 186 161 197 188 159 206 195 167 206 193 161 210 194 161 215 196 163 216 197 165 215 199 176 149 136 119 79 67 51 168 157 139 205 193 169 203 189 163 202 188 162 206 191 170 200 189 169 202 191 173 189 182 164 192 183 166 181 172 155 187 178 161 184 178 162 181 175 159 184 175 160 193 180 164 198 186 162 197 182 159 189 173 157 181 169 155 167 163 152 164 164 156 160 161 155 139 170 136 102 193 97 99 193 97 133 171 134 
190 178 156 190 178 156 194 179 158 174 192 142 136 218 108 109 191 81 174 194 141 194 182 158 194 179 158 194 179 158 193 181 159 193 180 161 191 180 160 190 179 161 189 176 159 188 175 158 182 170 154 189 177 161 184 177 158 191 183 162 191 183 160 194 182 158 198 186 160 210 196 170 210 195 166 215 200 177 167 155 139 46 36 27 40 33 23 43 34 25 154 147 129 192 184 163 191 183 160 188 180 157 195 184 162 194 183 165 183 176 158 181 173 160 185 177 166 180 173 163 176 174 162 168 166 154 167 161 149 173 165 152 182 173 156 185 176 161 182 172 162 177 168 163 160 156 155 155 153 156 147 147 149 144 143 148 147 150 155 151 154 159 150 155 161 
187 175 153 189 177 155 191 179 157 193 181 159 192 180 158 193 181 159 196 181 158 197 182 159 195 183 159 195 183 159 195 183 161 195 183 161 193 182 162 191 180 162 188 177 159 185 173 159 182 173 158 181 171 159 183 174 159 191 182 165 187 179 160 195 184 164 198 187 165 197 184 165 194 186 165 175 168 152 56 49 43 35 29 29 29 28 26 33 29 28 48 45 40 162 155 145 199 192 173 193 182 160 185 174 152 190 177 158 189 176 159 186 174 162 175 165 156 177 170 164 169 166 157 167 164 155 168 165 156 174 170 161 178 174 163 176 172 163 169 164 160 161 157 156 152 152 152 153 154 156 151 150 155 148 147 152 153 152 158 155 154 160 153 152 157 
188 176 154 189 177 155 193 178 157 195 180 159 196 181 158 197 182 159 199 184 161 200 185 162 200 188 162 200 188 164 199 187 163 199 187 165 199 188 168 195 184 166 189 181 162 185 176 161 189 180 165 182 172 160 189 180 165 188 179 164 189 181 162 194 186 167 199 188 170 200 191 174 187 179 168 81 76 70 41 37 38 40 38 43 38 37 43 34 33 38 33 31 34 54 51 46 168 160 147 205 194 174 214 199 176 209 193 168 200 184 161 198 183 164 191 179 163 177 169 156 175 169 157 175 171 159 176 172 161 175 171 160 170 167 158 166 163 156 159 160 155 157 157 155 158 159 153 162 161 156 161 160 156 161 157 154 160 159 154 156 155 150 154 151 146 
190 174 149 192 176 151 194 178 155 195 179 156 196 180 157 196 180 157 198 182 157 199 183 158 199 185 158 198 184 158 194 184 159 194 183 161 194 183 163 192 181 163 188 176 162 185 173 161 182 173 158 189 180 165 192 184 165 183 175 156 192 183 166 188 179 162 197 188 171 193 185 172 93 86 78 47 42 39 40 35 39 34 29 36 44 43 49 38 37 45 43 41 46 39 35 34 65 56 47 184 171 154 215 199 176 212 192 165 213 194 162 203 187 154 193 178 149 186 172 146 184 173 153 188 176 160 189 177 161 182 172 160 175 166 157 169 162 156 162 159 154 160 156 153 160 160 152 158 158 150 157 154 147 158 155 148 160 155 149 156 149 143 150 143 137 
193 176 150 194 177 151 195 177 153 196 178 154 195 177 153 195 177 153 196 178 154 198 180 156 193 179 153 192 177 154 192 177 156 192 177 158 189 176 157 188 175 158 186 173 156 183 171 155 178 169 152 188 179 162 186 178 159 184 173 155 188 180 161 192 183 166 191 184 168 119 110 101 51 46 40 27 52 20 104 191 97 0 80 0 19 47 22 42 39 46 40 39 44 47 45 48 52 44 41 71 58 50 190 174 158 208 188 164 218 199 169 216 196 163 203 187 153 201 185 152 202 185 159 202 184 162 196 179 159 185 169 154 174 162 150 166 155 149 157 150 142 150 142 139 148 143 139 154 146 144 157 149 147 160 150 149 158 148 146 150 140 138 145 133 133 
193 176 148 195 178 150 196 179 151 196 179 151 195 178 150 195 178 150 196 179 153 197 180 154 193 177 152 193 177 154 192 176 153 191 174 154 189 174 155 188 172 156 188 172 156 188 172 157 185 174 156 185 174 156 186 173 156 187 174 158 183 174 157 185 175 163 141 132 123 54 47 41 54 48 48 44 39 43 43 41 46 38 35 42 29 30 35 47 48 53 46 45 50 46 44 49 47 45 46 28 53 21 17 103 4 108 191 85 174 190 141 201 185 162 196 179 153 204 184 159 215 196 166 210 189 162 193 176 150 174 156 136 160 143 133 156 141 134 153 140 134 148 137 131 150 139 135 161 150 146 168 155 149 165 152 146 160 147 141 156 143 137 153 139 136 
192 175 145 194 177 147 195 178 150 196 179 151 197 180 152 197 180 152 197 180 152 199 182 156 194 176 152 194 176 154 192 174 154 190 173 153 188 173 154 187 174 157 188 172 156 189 173 158 186 174 158 187 175 159 189 176 160 190 176 163 184 174 162 155 145 136 70 60 58 60 51 52 47 45 48 49 48 53 44 43 49 39 38 44 48 48 56 38 38 46 39 40 44 46 47 51 38 39 44 51 50 55 52 46 46 81 72 67 176 163 154 165 182 138 130 208 106 113 189 81 190 201 143 212 189 158 200 180 155 181 162 145 165 148 138 160 145 140 159 146 140 159 146 138 172 158 145 178 165 149 173 160 144 162 149 133 162 149 133 168 155 139 168 154 141 
190 165 125 193 168 128 204 176 137 205 177 138 202 172 134 206 176 138 214 182 143 193 195 130 116 189 72 146 220 109 178 188 135 192 172 148 191 173 149 191 175 152 189 172 152 190 173 155 190 173 155 191 174 156 193 176 156 189 173 157 175 163 149 75 66 59 65 60 56 51 47 48 51 51 53 47 46 51 44 43 49 43 42 48 46 45 51 47 46 52 47 44 51 46 43 50 53 51 56 43 41 46 56 51 55 57 51 53 98 93 87 173 164 155 182 168 155 192 176 160 187 170 150 194 178 155 194 179 156 180 163 143 181 164 144 170 151 137 166 143 135 173 152 147 174 160 149 166 153 144 158 145 136 161 148 140 164 152 140 166 152 141 170 156 143 
205 173 132 204 172 131 208 175 134 209 176 135 208 175 134 214 181 140 221 186 146 218 184 146 206 178 141 203 176 146 195 171 143 192 168 144 191 171 146 195 175 150 195 175 151 195 175 151 199 181 159 193 175 155 190 175 154 185 172 156 78 68 58 47 39 36 45 39 39 28 23 27 37 36 41 38 37 42 41 40 46 46 45 51 49 48 54 49 48 54 46 45 51 44 43 49 42 40 43 51 49 52 54 52 57 55 50 54 34 30 27 150 143 137 173 163 153 175 163 151 179 165 152 170 156 143 175 162 146 177 164 148 159 143 130 151 166 125 109 190 87 119 197 95 153 170 125 170 154 139 163 149 138 165 150 143 161 151 142 157 146 140 158 148 139 
230 196 133 228 194 131 231 197 136 233 199 138 233 198 140 236 201 143 237 200 145 232 196 144 208 179 135 201 173 136 192 165 135 188 161 134 188 163 133 190 165 135 191 167 139 172 181 124 136 210 97 113 189 80 176 194 146 112 100 88 46 41 35 48 44 43 36 31 37 40 35 42 43 42 48 39 38 44 34 33 39 30 29 35 31 30 36 37 36 42 43 42 50 48 47 55 62 61 66 55 54 59 50 48 53 54 52 55 47 43 44 56 51 48 155 150 146 168 159 154 164 155 146 173 163 154 163 154 145 159 149 140 162 152 140 158 146 134 164 152 138 173 159 146 177 161 145 160 176 131 119 197 95 108 190 90 147 169 130 159 152 146 159 152 146 
246 212 140 246 212 141 247 213 142 248 213 145 247 212 146 246 211 147 246 208 145 241 205 147 204 172 123 195 163 122 189 159 125 191 160 131 189 160 128 188 159 127 191 162 130 194 165 133 199 169 135 199 172 145 174 157 141 49 38 32 54 49 46 57 55 58 38 33 39 49 44 51 45 42 49 48 45 52 50 47 54 49 46 53 46 43 50 42 39 46 40 37 46 39 36 45 33 31 36 40 38 43 44 43 49 36 35 40 30 30 32 39 37 38 64 60 59 150 142 140 167 160 152 167 157 148 161 150 144 163 150 144 166 153 145 153 140 132 168 158 146 165 153 141 163 151 137 165 151 138 160 146 135 158 144 135 153 143 133 151 141 132 154 143 137 
243 208 150 244 209 151 241 206 150 238 203 147 235 200 146 234 199 145 234 201 147 238 205 152 211 178 127 199 165 120 197 162 122 201 165 129 198 164 126 195 161 123 200 166 128 206 172 134 206 176 138 211 186 155 86 69 53 62 53 46 56 53 48 41 39 40 56 54 57 51 46 52 60 58 63 59 57 62 58 53 60 54 49 56 49 46 53 49 46 53 52 49 58 54 51 60 56 54 59 49 47 52 47 45 48 47 45 48 50 48 51 57 55 58 59 55 56 60 55 52 146 138 125 154 142 128 159 146 137 163 148 141 162 145 137 169 152 144 155 141 130 166 152 141 156 146 136 159 146 137 155 142 133 156 142 131 159 143 128 162 145 129 168 151 135 
233 202 147 236 205 150 237 204 150 235 202 148 236 201 143 235 200 142 235 200 142 241 206 148 231 194 139 214 177 124 207 169 120 208 170 123 207 171 121 210 174 126 220 186 138 226 193 150 223 198 158 145 124 95 59 43 30 74 65 60 48 44 41 34 63 32 104 191 97 12 97 6 43 69 40 61 56 60 61 56 62 61 56 62 60 55 61 58 53 59 58 53 59 57 52 58 53 48 54 62 57 63 57 52 58 62 57 63 70 65 69 59 54 58 55 49 53 65 56 57 81 73 62 149 137 123 155 141 130 164 146 136 168 150 138 160 140 129 166 148 136 156 140 127 151 141 129 154 145 130 160 144 128 169 151 131 176 156 131 180 156 130 187 163 135 
232 201 144 236 205 148 239 207 146 241 210 146 247 214 147 245 210 142 242 208 136 248 211 141 242 205 137 228 190 125 223 185 122 225 187 124 226 191 123 237 202 136 244 210 149 237 205 156 183 160 126 73 54 37 72 57 54 72 60 64 42 38 39 53 48 52 61 56 60 57 50 57 67 62 66 66 61 65 64 59 63 65 60 64 66 61 65 66 61 65 63 58 64 61 56 62 65 60 64 66 61 65 68 62 66 63 57 61 65 59 61 59 53 55 61 52 55 62 53 56 59 49 48 84 73 71 160 143 135 162 144 132 158 139 124 167 148 133 165 148 132 157 139 125 163 146 128 172 154 134 180 158 134 192 168 140 197 172 141 194 170 136 196 170 137 
233 201 152 235 202 151 233 200 147 217 216 136 122 190 55 185 251 115 224 221 128 248 209 140 251 213 140 247 209 136 249 212 134 252 215 137 250 217 136 254 221 144 243 210 141 216 186 134 85 66 36 68 54 45 72 60 62 60 50 59 57 51 55 58 53 59 64 57 64 70 63 70 69 63 67 49 74 44 105 190 97 12 97 4 50 75 46 69 63 67 69 63 67 66 60 64 67 61 65 68 62 66 67 58 61 70 61 64 65 56 61 73 64 69 65 54 58 62 51 57 61 55 59 59 50 53 100 86 83 160 143 133 167 150 134 162 144 124 163 144 127 174 153 134 179 155 131 188 161 134 194 167 137 205 176 144 201 175 138 191 165 128 189 163 126 
237 207 147 238 206 145 242 206 144 247 209 144 251 213 142 254 214 142 254 214 142 253 213 141 247 215 142 246 213 144 239 203 141 245 209 151 238 206 149 234 204 154 224 200 164 100 79 58 73 60 52 73 63 64 69 60 65 61 51 59 60 54 58 68 62 66 72 63 68 69 58 62 81 69 69 79 65 64 78 66 66 79 67 67 79 69 70 77 67 68 73 63 64 80 70 71 75 63 65 61 80 50 108 189 96 32 113 20 71 90 58 88 76 76 82 70 70 77 65 65 71 61 62 63 53 54 61 50 48 113 100 94 159 143 128 166 145 124 178 154 126 183 158 127 195 172 140 194 171 139 199 177 140 197 173 139 187 163 129 188 163 132 194 167 138 
240 206 145 241 205 145 242 207 143 246 208 143 250 212 141 251 213 140 252 212 142 249 210 141 246 211 143 238 204 140 244 208 146 242 207 151 234 204 150 215 190 149 128 106 82 91 75 62 70 59 55 57 48 49 51 42 45 58 49 54 65 59 63 68 62 66 77 68 73 83 74 79 83 73 74 83 73 74 90 80 81 92 82 83 94 82 86 90 78 82 84 74 73 91 81 80 93 81 83 89 77 79 82 72 73 75 65 66 71 61 60 73 63 62 76 66 65 77 67 66 77 67 68 79 69 70 72 62 61 64 53 49 95 82 73 141 158 113 116 194 85 115 189 74 180 191 123 212 187 146 205 181 135 203 176 133 205 182 138 203 180 138 185 160 119 
244 206 143 244 206 143 244 206 143 245 207 142 248 210 139 249 211 140 249 209 139 226 221 130 185 249 113 123 189 57 221 220 137 230 199 145 219 191 151 113 89 63 81 63 53 70 54 55 67 57 56 60 51 54 58 52 54 64 58 62 69 63 67 69 63 67 69 63 67 71 65 69 76 67 70 75 66 69 78 67 71 75 64 68 74 63 67 72 61 65 73 62 66 84 73 77 76 65 69 77 66 70 76 66 67 72 62 63 69 59 60 68 58 59 69 59 60 71 61 62 67 61 61 58 52 52 68 62 64 64 55 56 59 48 42 84 70 59 178 160 138 192 171 140 195 172 130 217 190 143 224 197 150 215 186 142 216 192 146 212 188 144 196 169 124 
246 207 138 246 207 138 246 207 140 246 207 138 247 209 138 247 209 138 248 208 138 247 206 140 247 206 140 249 209 148 240 205 149 235 204 160 122 101 74 77 59 47 66 55 53 72 61 65 61 55 57 63 57 59 63 58 62 64 59 63 66 59 66 69 62 69 74 68 72 79 73 77 76 69 76 74 67 74 77 71 75 75 69 73 76 67 70 74 63 67 71 60 64 78 66 70 64 55 58 69 60 63 76 67 70 79 70 73 77 71 71 74 68 68 73 64 65 72 63 64 75 66 67 69 60 63 74 67 74 66 56 64 66 58 56 68 57 51 98 85 69 203 185 161 212 192 155 210 185 144 216 188 149 206 176 138 200 175 135 198 173 133 216 189 146 
250 208 132 250 208 132 250 208 134 250 208 134 249 210 133 249 210 135 248 208 136 248 208 138 241 203 132 242 207 143 235 203 156 155 128 98 77 59 47 46 63 29 107 191 93 12 98 1 40 65 35 45 70 40 105 190 97 27 112 19 58 83 53 65 59 61 59 53 57 62 56 60 69 62 69 67 60 67 70 61 66 70 61 66 73 64 67 73 64 67 69 58 62 73 62 66 78 69 72 78 69 72 77 68 71 77 68 71 77 68 69 76 67 68 77 68 69 77 68 69 73 65 63 74 65 66 62 51 57 67 56 62 65 56 59 62 52 50 68 58 49 112 96 80 204 185 155 191 201 140 140 213 95 116 189 71 177 186 119 198 173 133 215 191 147 
253 208 123 253 208 125 254 209 126 254 209 128 252 210 126 252 210 128 252 209 131 251 209 135 252 214 141 237 202 144 172 146 111 84 62 48 68 54 51 68 57 61 63 58 55 62 56 56 56 50 50 62 56 58 70 61 64 71 62 65 73 64 65 73 64 67 74 65 68 73 64 69 79 70 73 75 66 69 75 64 68 75 64 68 83 71 75 88 76 80 86 75 79 91 80 84 82 71 75 79 68 72 76 66 67 76 66 67 77 67 68 76 66 67 76 66 67 76 66 67 75 65 64 76 66 67 75 64 68 72 61 67 77 68 69 74 64 63 67 57 55 63 51 39 126 110 85 205 187 151 212 189 148 209 185 139 211 187 139 214 191 141 207 181 130 
255 210 119 255 209 121 255 209 121 255 209 123 254 210 121 254 210 123 252 210 124 250 211 132 244 209 143 203 175 127 85 63 39 84 67 59 69 59 57 68 59 60 62 53 54 66 57 58 63 57 59 79 70 73 83 74 75 79 69 70 77 67 68 81 70 74 79 68 72 74 63 69 72 62 63 74 64 65 77 68 69 77 68 69 80 70 71 79 69 70 74 64 65 79 69 70 78 68 69 77 67 68 79 69 70 83 73 74 85 75 74 83 73 72 80 70 69 79 67 67 83 71 71 84 70 70 77 65 65 82 70 70 70 60 61 75 65 66 69 57 59 78 64 61 68 56 40 155 139 113 202 184 148 208 187 144 207 185 136 214 192 142 209 186 136 
255 211 114 255 211 116 255 210 117 255 210 119 254 209 116 254 209 118 254 208 122 251 207 132 221 186 128 107 77 39 80 59 40 74 59 52 70 60 58 74 65 66 66 57 62 70 59 65 75 69 71 82 73 74 87 77 78 87 75 77 83 71 71 83 71 73 91 81 82 101 91 92 95 83 83 97 86 84 98 86 86 91 79 79 84 74 75 80 70 71 78 68 67 85 75 74 84 72 74 81 69 71 81 69 71 64 83 53 27 111 15 106 190 94 64 83 51 85 71 71 88 74 74 88 72 73 85 71 70 78 64 63 76 67 62 65 55 53 77 66 70 63 52 56 66 55 53 81 67 58 165 147 123 201 181 148 208 186 147 207 184 142 209 186 144 
253 210 106 255 213 108 251 211 100 255 215 104 250 207 102 255 213 113 251 215 119 230 200 127 106 86 51 77 61 48 67 54 48 79 68 66 80 70 69 68 59 60 61 55 55 67 58 61 77 68 71 75 64 68 73 63 64 85 75 76 83 71 71 58 77 47 30 111 16 90 202 76 90 202 74 44 124 29 87 104 72 97 81 82 87 71 72 85 69 70 85 69 70 86 70 71 84 72 72 81 69 69 86 74 74 88 76 76 86 72 72 87 73 73 89 75 75 83 67 68 92 77 74 91 73 73 83 67 68 84 68 71 89 77 77 82 70 72 87 72 75 74 62 64 75 66 61 72 62 53 75 61 48 157 139 119 203 182 153 197 175 138 202 179 137 
255 217 94 254 216 93 252 214 91 233 229 93 126 193 25 179 248 95 215 217 118 147 121 64 83 66 36 70 56 43 74 61 55 81 70 68 73 63 62 67 58 59 71 62 63 74 65 68 70 60 61 72 62 63 82 70 72 87 75 77 82 68 68 85 71 71 91 79 79 83 71 71 84 73 71 87 73 72 85 71 70 102 86 86 101 85 86 106 90 91 95 81 81 100 86 86 87 73 73 93 79 79 94 80 80 92 78 78 90 76 76 83 69 69 85 69 70 98 82 83 96 80 80 97 81 81 92 78 78 86 72 72 83 73 72 77 65 65 84 72 74 80 68 70 81 71 70 70 91 58 12 94 0 111 190 85 148 163 104 196 178 142 199 180 138 
252 215 75 253 215 78 255 218 85 250 213 81 251 218 87 251 220 112 176 151 85 89 66 32 80 63 45 69 85 46 25 107 9 108 189 96 56 77 44 72 62 61 68 58 59 77 65 67 84 72 72 99 85 85 97 85 85 86 74 74 87 75 75 86 74 74 78 66 68 82 70 72 90 79 77 91 80 78 85 71 71 76 93 61 42 123 28 108 189 94 80 97 65 87 73 73 97 83 82 93 79 78 90 74 74 91 75 75 94 78 79 87 71 72 90 72 72 104 86 86 91 77 77 91 77 77 83 69 69 74 60 60 72 60 60 74 60 60 79 64 67 78 62 65 75 63 65 79 67 69 72 58 57 90 75 68 99 86 67 168 153 124 196 177 144 
254 216 57 255 217 62 252 217 65 254 222 79 243 215 80 232 207 106 92 70 20 93 72 55 85 71 62 85 71 70 82 70 72 75 63 65 71 59 59 79 68 66 86 75 73 84 70 69 92 78 77 99 83 83 95 81 81 85 71 71 89 77 77 87 75 75 79 67 69 96 84 86 94 82 82 83 71 71 85 71 71 88 74 74 91 77 77 82 68 68 80 66 66 79 65 65 95 79 79 81 65 65 85 67 67 95 77 77 97 79 79 98 80 80 98 80 80 92 76 76 88 74 74 69 88 58 27 111 15 108 189 94 63 82 50 87 73 72 87 73 72 80 66 65 83 69 69 76 61 64 76 66 67 69 57 57 63 53 43 88 75 59 175 158 138 
254 220 24 255 222 29 248 217 28 245 216 54 229 202 85 116 92 18 87 67 34 80 62 52 83 68 61 92 78 77 81 69 73 71 59 63 79 67 67 82 71 69 85 71 71 98 84 84 97 82 79 84 69 66 90 74 74 89 73 73 79 65 64 82 68 67 85 71 71 88 74 74 90 76 76 84 70 70 91 77 77 90 76 76 89 75 74 81 67 66 91 75 75 96 80 80 96 78 76 93 75 73 99 81 79 105 87 85 102 82 81 99 79 78 95 75 74 85 67 67 76 62 61 81 69 69 89 75 74 89 75 74 86 75 71 89 78 74 85 71 68 79 65 62 84 71 63 89 75 72 67 57 56 72 62 63 69 58 56 81 68 62 100 85 78 
252 225 0 253 227 8 254 232 25 239 217 56 117 95 9 93 71 32 76 58 38 85 68 60 89 74 71 78 64 64 74 62 64 75 63 65 74 63 61 77 66 64 83 69 68 80 66 66 79 64 61 81 66 63 88 73 70 88 73 70 88 72 72 96 80 80 99 83 83 96 80 80 93 77 77 98 82 82 101 85 85 97 81 81 88 73 70 101 83 81 108 90 88 106 86 85 112 94 92 120 102 100 116 96 95 111 91 90 114 94 93 111 91 90 104 84 83 103 85 83 96 80 80 95 81 80 96 81 78 96 81 78 96 81 78 103 88 85 93 79 76 89 76 70 85 70 63 89 74 69 93 81 81 90 78 82 86 74 74 89 75 75 87 73 72 
255 233 10 245 222 20 246 224 63 157 135 26 84 66 16 82 64 50 91 74 67 92 74 72 93 79 78 86 72 72 80 65 68 84 69 72 93 82 80 95 84 80 94 80 79 94 80 79 83 68 65 104 89 86 97 82 79 89 74 71 101 83 81 101 83 81 97 79 77 102 84 82 104 86 84 96 78 76 94 80 77 97 83 80 94 79 76 98 80 78 102 84 80 100 81 77 96 78 76 99 81 79 93 73 72 90 70 69 99 79 78 106 86 85 104 84 83 105 85 84 106 91 88 99 81 79 93 75 73 93 73 72 92 77 74 102 87 84 93 78 75 91 76 73 101 86 81 88 73 70 80 64 64 74 58 59 86 72 69 81 67 64 66 55 53 
249 231 37 247 227 66 163 139 43 86 64 14 81 69 45 80 69 63 69 55 55 90 74 77 84 68 68 75 59 59 76 62 62 82 68 68 79 68 64 64 84 47 34 116 18 109 189 94 71 88 54 104 88 88 98 80 78 93 75 73 97 79 75 96 78 74 102 84 80 88 102 67 109 189 90 40 117 21 82 98 62 90 72 70 99 81 77 87 101 66 58 136 37 111 188 92 74 88 53 90 72 70 94 76 74 97 79 77 95 77 75 79 93 60 112 187 92 34 109 14 76 87 55 91 71 70 92 72 71 93 73 72 87 69 67 94 76 74 81 66 63 84 69 66 84 66 66 81 63 63 80 61 63 93 75 75 84 70 67 78 65 59 84 70 67 
246 234 96 193 179 70 78 62 10 85 68 50 82 65 57 89 71 69 99 79 80 87 67 68 83 69 66 75 64 62 82 71 69 78 66 66 85 73 73 86 74 74 86 76 77 80 70 71 79 67 67 81 69 69 83 69 69 64 81 49 108 189 94 31 111 14 73 90 56 87 69 67 100 83 76 110 91 85 98 79 75 107 88 84 108 89 83 98 79 73 102 81 78 89 70 66 83 68 65 84 69 66 94 79 76 99 81 79 94 76 72 96 78 74 104 86 84 99 84 81 88 74 71 90 76 73 89 74 71 84 66 64 92 74 70 93 75 71 82 64 62 91 73 71 88 73 66 82 67 62 83 70 64 86 72 69 95 80 77 92 77 74 97 82 77 
210 194 117 94 78 18 91 71 44 93 73 64 89 72 64 101 84 77 97 80 73 89 74 69 78 64 61 72 61 59 79 65 64 63 80 48 108 190 92 28 109 14 66 86 51 92 78 77 92 74 72 97 77 76 108 90 86 106 88 84 110 91 85 102 83 77 95 76 70 104 85 79 93 75 71 106 88 84 98 80 76 100 82 78 121 101 100 113 93 92 98 78 77 107 87 86 103 84 78 108 87 82 108 88 81 111 88 82 110 87 81 111 88 82 106 82 78 102 81 78 96 81 76 76 93 59 38 120 20 109 189 90 87 103 67 102 84 80 92 74 72 98 78 77 101 80 75 114 90 88 118 97 94 103 82 81 95 74 73 90 69 68 93 72 71 
113 90 72 93 70 56 96 71 64 102 79 73 105 87 77 103 86 76 91 76 69 85 70 65 97 83 80 90 76 73 90 75 72 100 85 82 98 80 76 104 86 82 96 77 73 100 79 74 111 91 84 130 107 99 104 81 73 106 83 75 100 77 69 114 91 83 121 96 89 136 111 104 125 102 96 99 76 70 116 93 87 122 99 93 112 89 83 124 101 95 124 99 95 111 87 83 102 83 79 114 96 92 110 91 87 107 88 84 101 82 78 103 84 80 98 78 77 106 85 82 107 84 76 104 80 70 108 81 72 123 96 87 128 101 94 117 90 83 108 85 77 108 85 77 115 95 84 101 81 72 94 74 65 87 67 60 91 73 63 90 72 62 94 77 67 
96 72 70 104 79 75 101 76 71 123 96 89 115 92 86 111 87 85 84 64 65 80 61 63 80 64 64 84 69 66 93 78 73 103 85 81 96 77 70 102 82 75 99 79 72 109 86 80 114 90 80 108 84 74 118 94 84 128 104 94 138 114 104 130 106 96 115 91 81 131 104 95 118 92 79 112 84 72 134 104 94 131 101 91 115 85 75 119 89 79 118 88 78 116 87 79 118 95 89 118 97 92 106 83 77 109 86 80 109 86 80 119 95 91 103 82 77 99 78 75 110 91 85 103 84 78 103 82 79 118 97 94 118 97 92 107 86 81 108 84 82 100 76 74 98 74 70 101 77 75 103 82 79 96 75 74 98 79 75 94 75 71 94 75 71 
105 83 72 103 79 69 120 94 81 111 83 72 102 75 68 102 77 73 90 69 68 76 56 57 86 71 66 90 72 68 95 77 73 96 77 71 93 73 66 101 78 70 100 77 69 102 77 70 102 82 75 113 93 86 99 76 70 122 99 93 108 85 77 118 95 87 109 84 77 100 75 68 114 87 78 123 96 87 117 93 83 92 100 61 115 187 87 62 134 35 95 100 60 122 93 85 106 79 68 111 83 72 109 81 70 116 86 76 106 78 67 118 90 79 115 88 79 113 86 77 110 87 79 104 79 72 102 77 70 115 88 81 114 87 78 109 82 73 111 86 79 103 78 71 113 86 77 107 80 73 111 84 77 95 101 65 113 188 87 42 117 16 92 100 61 
103 81 70 108 84 74 110 85 78 116 89 82 114 91 83 76 87 47 112 189 87 51 129 28 69 85 48 86 68 64 89 71 67 95 76 72 106 86 79 119 99 92 115 92 84 85 96 56 111 189 88 32 110 9 80 92 56 105 84 79 108 85 79 107 84 78 108 83 76 119 94 89 119 99 92 115 94 89 106 87 81 110 91 85 117 96 91 120 99 94 124 100 96 113 89 85 124 104 97 113 93 86 104 84 77 91 103 65 112 188 88 57 133 35 90 104 68 101 80 77 107 86 81 107 82 78 109 82 75 114 85 79 111 84 73 93 100 59 56 128 26 113 188 87 85 96 53 108 89 75 106 88 76 94 76 64 99 81 67 106 88 74 111 91 80 
95 78 71 102 84 80 100 81 77 102 83 79 97 78 71 120 102 92 110 93 85 99 82 75 88 73 66 94 79 74 103 85 81 90 104 69 110 191 89 55 133 32 88 100 62 108 88 81 104 87 80 110 93 86 101 82 76 109 88 83 104 81 73 109 82 75 109 82 73 90 95 55 114 187 82 59 132 27 102 107 66 106 111 70 63 135 33 116 187 85 93 99 55 118 90 79 109 82 71 110 86 76 113 89 77 117 93 81 112 88 78 111 86 79 111 88 80 111 90 85 103 84 80 101 82 78 107 88 82 112 89 81 111 89 78 111 87 75 109 85 73 109 82 71 112 85 74 111 83 72 116 86 76 115 85 75 123 90 81 122 89 80 127 95 84 
69 54 49 84 69 66 62 48 48 63 49 49 60 49 43 68 54 51 62 47 50 67 50 56 70 54 55 75 59 59 77 59 57 90 72 70 75 58 51 88 71 64 82 63 57 91 72 66 82 65 58 88 69 63 96 77 70 110 87 79 135 108 99 138 108 98 139 109 99 154 120 108 172 134 115 166 125 103 166 124 100 170 128 104 171 126 103 168 123 100 174 129 106 186 140 116 176 131 102 188 141 111 196 149 119 200 153 123 198 151 121 178 131 103 160 114 88 158 111 85 188 139 109 194 141 110 211 157 123 221 165 130 228 170 133 232 174 136 230 171 131 236 177 137 234 180 136 228 174 130 229 171 131 226 168 128 231 172 130 225 166 124 227 166 122 
90 73 66 87 68 62 90 72 62 88 68 59 93 76 68 82 63 56 85 66 60 80 61 55 82 69 63 72 61 55 72 59 53 73 60 54 85 70 63 93 78 71 85 68 60 75 58 50 74 61 53 77 62 55 101 82 78 87 66 61 86 66 59 91 68 60 88 61 50 149 116 99 198 152 126 195 144 113 190 139 108 193 142 113 197 146 115 198 147 116 195 144 113 192 141 110 193 143 110 194 144 111 200 147 115 199 146 114 201 148 114 198 145 111 192 137 106 195 140 109 203 149 113 214 160 124 215 161 125 218 164 128 208 154 116 192 138 100 199 145 107 209 153 118 204 148 113 198 139 107 195 136 104 199 140 108 201 142 108 194 135 101 187 131 96 
119 92 75 132 103 87 151 120 100 147 114 95 139 110 92 126 95 77 142 109 92 156 118 99 169 125 100 169 122 94 174 124 97 174 124 97 181 132 100 189 140 108 188 138 105 186 135 104 186 140 107 188 139 109 186 135 106 188 135 104 186 136 103 183 130 96 190 131 97 202 143 111 191 138 104 179 128 97 175 126 94 179 130 100 179 130 100 179 130 100 180 131 99 179 130 98 183 133 100 185 135 102 192 139 107 193 140 108 197 144 110 197 144 110 194 139 108 198 143 112 194 140 104 193 139 103 185 131 95 195 141 105 200 146 108 193 139 101 193 139 101 192 138 100 199 143 108 194 138 103 195 139 104 203 147 112 213 155 118 213 155 118 213 155 118 
